<mxfile host="app.diagrams.net" agent="Mozilla/5.0 (Windows NT 10.0; Win64; x64) AppleWebKit/537.36 (KHTML, like Gecko) Chrome/139.0.0.0 Safari/537.36" version="28.0.9" pages="4">
  <diagram name="Option 1" id="zfFQfB1DV8Jy7GfqzUVZ">
    <mxGraphModel dx="983" dy="512" grid="1" gridSize="10" guides="1" tooltips="1" connect="1" arrows="1" fold="1" page="1" pageScale="1" pageWidth="850" pageHeight="1100" math="0" shadow="0">
      <root>
        <mxCell id="0" />
        <mxCell id="1" parent="0" />
        <mxCell id="sYzaasg_WvSq9fgUUo7k-1" value="Eide Bailly" style="rounded=0;whiteSpace=wrap;html=1;" parent="1" vertex="1">
          <mxGeometry x="230" y="70" width="120" height="60" as="geometry" />
        </mxCell>
        <mxCell id="sYzaasg_WvSq9fgUUo7k-18" style="edgeStyle=orthogonalEdgeStyle;rounded=0;orthogonalLoop=1;jettySize=auto;html=1;exitX=0.5;exitY=1;exitDx=0;exitDy=0;entryX=0.5;entryY=0;entryDx=0;entryDy=0;" parent="1" source="sYzaasg_WvSq9fgUUo7k-2" target="sYzaasg_WvSq9fgUUo7k-12" edge="1">
          <mxGeometry relative="1" as="geometry" />
        </mxCell>
        <mxCell id="sYzaasg_WvSq9fgUUo7k-2" value="EBInsights" style="rounded=0;whiteSpace=wrap;html=1;" parent="1" vertex="1">
          <mxGeometry x="510" y="80" width="120" height="60" as="geometry" />
        </mxCell>
        <mxCell id="sYzaasg_WvSq9fgUUo7k-5" value="" style="endArrow=none;html=1;rounded=0;" parent="1" edge="1">
          <mxGeometry width="50" height="50" relative="1" as="geometry">
            <mxPoint x="420" y="490" as="sourcePoint" />
            <mxPoint x="420" y="50" as="targetPoint" />
          </mxGeometry>
        </mxCell>
        <mxCell id="KfVAR-ceLIKZcUOADzae-1" value="Tenant" style="edgeLabel;html=1;align=center;verticalAlign=middle;resizable=0;points=[];" parent="sYzaasg_WvSq9fgUUo7k-5" vertex="1" connectable="0">
          <mxGeometry x="0.9307" y="-1" relative="1" as="geometry">
            <mxPoint y="-25" as="offset" />
          </mxGeometry>
        </mxCell>
        <mxCell id="sYzaasg_WvSq9fgUUo7k-7" value="Benchmark Report" style="shape=card;whiteSpace=wrap;html=1;" parent="1" vertex="1">
          <mxGeometry x="270" y="410" width="55" height="60" as="geometry" />
        </mxCell>
        <mxCell id="sYzaasg_WvSq9fgUUo7k-8" value="CAH Analytics" style="shape=card;whiteSpace=wrap;html=1;" parent="1" vertex="1">
          <mxGeometry x="480" y="360" width="50" height="60" as="geometry" />
        </mxCell>
        <mxCell id="sYzaasg_WvSq9fgUUo7k-23" style="edgeStyle=orthogonalEdgeStyle;rounded=0;orthogonalLoop=1;jettySize=auto;html=1;exitX=0;exitY=0;exitDx=55;exitDy=60;exitPerimeter=0;entryX=0.5;entryY=0;entryDx=0;entryDy=0;" parent="1" source="sYzaasg_WvSq9fgUUo7k-11" target="sYzaasg_WvSq9fgUUo7k-13" edge="1">
          <mxGeometry relative="1" as="geometry" />
        </mxCell>
        <mxCell id="yG-jhrRL9_Tf11i7Qiw1-1" style="edgeStyle=orthogonalEdgeStyle;rounded=0;orthogonalLoop=1;jettySize=auto;html=1;exitX=0;exitY=0;exitDx=90;exitDy=20;exitPerimeter=0;entryX=0.5;entryY=0;entryDx=0;entryDy=0;" edge="1" parent="1" source="sYzaasg_WvSq9fgUUo7k-11" target="HkKmfuw08ZhLWNR-pIBR-5">
          <mxGeometry relative="1" as="geometry">
            <Array as="points">
              <mxPoint x="345" y="290" />
              <mxPoint x="440" y="290" />
              <mxPoint x="440" y="170" />
              <mxPoint x="740" y="170" />
            </Array>
          </mxGeometry>
        </mxCell>
        <mxCell id="sYzaasg_WvSq9fgUUo7k-11" value="Warehouse" style="shape=cube;whiteSpace=wrap;html=1;boundedLbl=1;backgroundOutline=1;darkOpacity=0.05;darkOpacity2=0.1;" parent="1" vertex="1">
          <mxGeometry x="255" y="250" width="90" height="60" as="geometry" />
        </mxCell>
        <mxCell id="sYzaasg_WvSq9fgUUo7k-19" style="edgeStyle=orthogonalEdgeStyle;rounded=0;orthogonalLoop=1;jettySize=auto;html=1;exitX=0.5;exitY=1;exitDx=0;exitDy=0;entryX=0.5;entryY=0;entryDx=0;entryDy=0;" parent="1" source="sYzaasg_WvSq9fgUUo7k-12" target="sYzaasg_WvSq9fgUUo7k-15" edge="1">
          <mxGeometry relative="1" as="geometry" />
        </mxCell>
        <mxCell id="sYzaasg_WvSq9fgUUo7k-12" value="DataFlows" style="shape=process;whiteSpace=wrap;html=1;backgroundOutline=1;" parent="1" vertex="1">
          <mxGeometry x="525" y="220" width="90" height="40" as="geometry" />
        </mxCell>
        <mxCell id="sYzaasg_WvSq9fgUUo7k-13" value="Semantic Model" style="shape=hexagon;perimeter=hexagonPerimeter2;whiteSpace=wrap;html=1;fixedSize=1;" parent="1" vertex="1">
          <mxGeometry x="260" y="330" width="80" height="50" as="geometry" />
        </mxCell>
        <mxCell id="sYzaasg_WvSq9fgUUo7k-15" value="Semantic Model" style="shape=hexagon;perimeter=hexagonPerimeter2;whiteSpace=wrap;html=1;fixedSize=1;" parent="1" vertex="1">
          <mxGeometry x="530" y="290" width="80" height="50" as="geometry" />
        </mxCell>
        <mxCell id="sYzaasg_WvSq9fgUUo7k-17" value="CAH Analytics" style="shape=card;whiteSpace=wrap;html=1;" parent="1" vertex="1">
          <mxGeometry x="600" y="360" width="50" height="60" as="geometry" />
        </mxCell>
        <mxCell id="sYzaasg_WvSq9fgUUo7k-20" style="edgeStyle=orthogonalEdgeStyle;rounded=0;orthogonalLoop=1;jettySize=auto;html=1;exitX=0.5;exitY=1;exitDx=0;exitDy=0;entryX=1;entryY=0.5;entryDx=0;entryDy=0;entryPerimeter=0;" parent="1" source="sYzaasg_WvSq9fgUUo7k-15" target="sYzaasg_WvSq9fgUUo7k-8" edge="1">
          <mxGeometry relative="1" as="geometry" />
        </mxCell>
        <mxCell id="sYzaasg_WvSq9fgUUo7k-21" style="edgeStyle=orthogonalEdgeStyle;rounded=0;orthogonalLoop=1;jettySize=auto;html=1;exitX=0.5;exitY=1;exitDx=0;exitDy=0;entryX=0;entryY=0;entryDx=0;entryDy=30;entryPerimeter=0;" parent="1" source="sYzaasg_WvSq9fgUUo7k-15" target="sYzaasg_WvSq9fgUUo7k-17" edge="1">
          <mxGeometry relative="1" as="geometry" />
        </mxCell>
        <mxCell id="sYzaasg_WvSq9fgUUo7k-22" style="edgeStyle=orthogonalEdgeStyle;rounded=0;orthogonalLoop=1;jettySize=auto;html=1;exitX=0.5;exitY=1;exitDx=0;exitDy=0;entryX=0;entryY=0;entryDx=35;entryDy=0;entryPerimeter=0;" parent="1" source="sYzaasg_WvSq9fgUUo7k-1" target="sYzaasg_WvSq9fgUUo7k-11" edge="1">
          <mxGeometry relative="1" as="geometry" />
        </mxCell>
        <mxCell id="sYzaasg_WvSq9fgUUo7k-24" style="edgeStyle=orthogonalEdgeStyle;rounded=0;orthogonalLoop=1;jettySize=auto;html=1;exitX=0.5;exitY=1;exitDx=0;exitDy=0;entryX=0;entryY=0;entryDx=30;entryDy=0;entryPerimeter=0;" parent="1" source="sYzaasg_WvSq9fgUUo7k-13" target="sYzaasg_WvSq9fgUUo7k-7" edge="1">
          <mxGeometry relative="1" as="geometry" />
        </mxCell>
        <mxCell id="HkKmfuw08ZhLWNR-pIBR-1" value="Onelake" style="rounded=1;whiteSpace=wrap;html=1;" parent="1" vertex="1">
          <mxGeometry x="90" y="240" width="80" height="30" as="geometry" />
        </mxCell>
        <mxCell id="HkKmfuw08ZhLWNR-pIBR-2" value="Strata" style="rounded=1;whiteSpace=wrap;html=1;" parent="1" vertex="1">
          <mxGeometry x="90" y="290" width="80" height="30" as="geometry" />
        </mxCell>
        <mxCell id="HkKmfuw08ZhLWNR-pIBR-3" style="edgeStyle=orthogonalEdgeStyle;rounded=0;orthogonalLoop=1;jettySize=auto;html=1;exitX=1;exitY=0.5;exitDx=0;exitDy=0;entryX=0;entryY=0;entryDx=0;entryDy=20;entryPerimeter=0;" parent="1" source="HkKmfuw08ZhLWNR-pIBR-1" target="sYzaasg_WvSq9fgUUo7k-11" edge="1">
          <mxGeometry relative="1" as="geometry" />
        </mxCell>
        <mxCell id="HkKmfuw08ZhLWNR-pIBR-4" style="edgeStyle=orthogonalEdgeStyle;rounded=0;orthogonalLoop=1;jettySize=auto;html=1;exitX=1;exitY=0.5;exitDx=0;exitDy=0;entryX=0;entryY=0;entryDx=0;entryDy=20;entryPerimeter=0;" parent="1" source="HkKmfuw08ZhLWNR-pIBR-2" target="sYzaasg_WvSq9fgUUo7k-11" edge="1">
          <mxGeometry relative="1" as="geometry" />
        </mxCell>
        <mxCell id="HkKmfuw08ZhLWNR-pIBR-6" style="edgeStyle=orthogonalEdgeStyle;rounded=0;orthogonalLoop=1;jettySize=auto;html=1;entryX=1;entryY=0.5;entryDx=0;entryDy=0;" parent="1" source="HkKmfuw08ZhLWNR-pIBR-5" target="sYzaasg_WvSq9fgUUo7k-12" edge="1">
          <mxGeometry relative="1" as="geometry" />
        </mxCell>
        <mxCell id="HkKmfuw08ZhLWNR-pIBR-5" value="Sharepoint" style="rounded=1;whiteSpace=wrap;html=1;" parent="1" vertex="1">
          <mxGeometry x="700" y="200" width="80" height="30" as="geometry" />
        </mxCell>
        <mxCell id="N1D-wld6w08PeSrJTpRm-1" value="Migrate to Gen2 Data flows and stage data in lakehouse?" style="text;html=1;align=center;verticalAlign=middle;whiteSpace=wrap;rounded=0;" parent="1" vertex="1">
          <mxGeometry x="810" y="470" width="140" height="30" as="geometry" />
        </mxCell>
      </root>
    </mxGraphModel>
  </diagram>
  <diagram name="Option 2" id="oj3Nfm7I39jd_sh1icZK">
    <mxGraphModel dx="983" dy="512" grid="1" gridSize="10" guides="1" tooltips="1" connect="1" arrows="1" fold="1" page="1" pageScale="1" pageWidth="850" pageHeight="1100" math="0" shadow="0">
      <root>
        <mxCell id="3BNfdtOmAp1Q7iNLewFZ-0" />
        <mxCell id="3BNfdtOmAp1Q7iNLewFZ-1" parent="3BNfdtOmAp1Q7iNLewFZ-0" />
        <mxCell id="3BNfdtOmAp1Q7iNLewFZ-2" value="Eide Bailly" style="rounded=0;whiteSpace=wrap;html=1;" parent="3BNfdtOmAp1Q7iNLewFZ-1" vertex="1">
          <mxGeometry x="230" y="100" width="120" height="60" as="geometry" />
        </mxCell>
        <mxCell id="3BNfdtOmAp1Q7iNLewFZ-3" style="edgeStyle=orthogonalEdgeStyle;rounded=0;orthogonalLoop=1;jettySize=auto;html=1;exitX=0.5;exitY=1;exitDx=0;exitDy=0;entryX=0.5;entryY=0;entryDx=0;entryDy=0;" parent="3BNfdtOmAp1Q7iNLewFZ-1" source="3BNfdtOmAp1Q7iNLewFZ-4" target="3BNfdtOmAp1Q7iNLewFZ-12" edge="1">
          <mxGeometry relative="1" as="geometry" />
        </mxCell>
        <mxCell id="3BNfdtOmAp1Q7iNLewFZ-4" value="EBInsights" style="rounded=0;whiteSpace=wrap;html=1;" parent="3BNfdtOmAp1Q7iNLewFZ-1" vertex="1">
          <mxGeometry x="500" y="80" width="120" height="60" as="geometry" />
        </mxCell>
        <mxCell id="3BNfdtOmAp1Q7iNLewFZ-5" value="" style="endArrow=none;html=1;rounded=0;" parent="3BNfdtOmAp1Q7iNLewFZ-1" edge="1">
          <mxGeometry width="50" height="50" relative="1" as="geometry">
            <mxPoint x="380" y="490" as="sourcePoint" />
            <mxPoint x="380" y="50" as="targetPoint" />
          </mxGeometry>
        </mxCell>
        <mxCell id="3BNfdtOmAp1Q7iNLewFZ-6" value="Tenant" style="edgeLabel;html=1;align=center;verticalAlign=middle;resizable=0;points=[];" parent="3BNfdtOmAp1Q7iNLewFZ-5" vertex="1" connectable="0">
          <mxGeometry x="0.9307" y="-1" relative="1" as="geometry">
            <mxPoint y="-25" as="offset" />
          </mxGeometry>
        </mxCell>
        <mxCell id="3BNfdtOmAp1Q7iNLewFZ-7" value="Benchmark Report" style="shape=card;whiteSpace=wrap;html=1;" parent="3BNfdtOmAp1Q7iNLewFZ-1" vertex="1">
          <mxGeometry x="275" y="410" width="50" height="60" as="geometry" />
        </mxCell>
        <mxCell id="3BNfdtOmAp1Q7iNLewFZ-8" value="CAH Analytics" style="shape=card;whiteSpace=wrap;html=1;" parent="3BNfdtOmAp1Q7iNLewFZ-1" vertex="1">
          <mxGeometry x="480" y="360" width="50" height="60" as="geometry" />
        </mxCell>
        <mxCell id="3BNfdtOmAp1Q7iNLewFZ-9" style="edgeStyle=orthogonalEdgeStyle;rounded=0;orthogonalLoop=1;jettySize=auto;html=1;exitX=0;exitY=0;exitDx=55;exitDy=60;exitPerimeter=0;entryX=0.5;entryY=0;entryDx=0;entryDy=0;" parent="3BNfdtOmAp1Q7iNLewFZ-1" source="3BNfdtOmAp1Q7iNLewFZ-10" target="3BNfdtOmAp1Q7iNLewFZ-13" edge="1">
          <mxGeometry relative="1" as="geometry" />
        </mxCell>
        <mxCell id="3BNfdtOmAp1Q7iNLewFZ-10" value="Warehouse" style="shape=cube;whiteSpace=wrap;html=1;boundedLbl=1;backgroundOutline=1;darkOpacity=0.05;darkOpacity2=0.1;" parent="3BNfdtOmAp1Q7iNLewFZ-1" vertex="1">
          <mxGeometry x="255" y="250" width="90" height="60" as="geometry" />
        </mxCell>
        <mxCell id="3BNfdtOmAp1Q7iNLewFZ-11" style="edgeStyle=orthogonalEdgeStyle;rounded=0;orthogonalLoop=1;jettySize=auto;html=1;exitX=0.5;exitY=1;exitDx=0;exitDy=0;entryX=0.5;entryY=0;entryDx=0;entryDy=0;" parent="3BNfdtOmAp1Q7iNLewFZ-1" source="3BNfdtOmAp1Q7iNLewFZ-12" target="3BNfdtOmAp1Q7iNLewFZ-14" edge="1">
          <mxGeometry relative="1" as="geometry" />
        </mxCell>
        <mxCell id="3BNfdtOmAp1Q7iNLewFZ-12" value="DataFlows" style="shape=process;whiteSpace=wrap;html=1;backgroundOutline=1;" parent="3BNfdtOmAp1Q7iNLewFZ-1" vertex="1">
          <mxGeometry x="525" y="220" width="90" height="40" as="geometry" />
        </mxCell>
        <mxCell id="3BNfdtOmAp1Q7iNLewFZ-13" value="Semantic Model" style="shape=hexagon;perimeter=hexagonPerimeter2;whiteSpace=wrap;html=1;fixedSize=1;" parent="3BNfdtOmAp1Q7iNLewFZ-1" vertex="1">
          <mxGeometry x="260" y="330" width="80" height="50" as="geometry" />
        </mxCell>
        <mxCell id="3BNfdtOmAp1Q7iNLewFZ-14" value="Semantic Model" style="shape=hexagon;perimeter=hexagonPerimeter2;whiteSpace=wrap;html=1;fixedSize=1;" parent="3BNfdtOmAp1Q7iNLewFZ-1" vertex="1">
          <mxGeometry x="530" y="290" width="80" height="50" as="geometry" />
        </mxCell>
        <mxCell id="3BNfdtOmAp1Q7iNLewFZ-15" value="CAH Analytics" style="shape=card;whiteSpace=wrap;html=1;" parent="3BNfdtOmAp1Q7iNLewFZ-1" vertex="1">
          <mxGeometry x="600" y="360" width="50" height="60" as="geometry" />
        </mxCell>
        <mxCell id="3BNfdtOmAp1Q7iNLewFZ-16" style="edgeStyle=orthogonalEdgeStyle;rounded=0;orthogonalLoop=1;jettySize=auto;html=1;exitX=0.5;exitY=1;exitDx=0;exitDy=0;entryX=1;entryY=0.5;entryDx=0;entryDy=0;entryPerimeter=0;" parent="3BNfdtOmAp1Q7iNLewFZ-1" source="3BNfdtOmAp1Q7iNLewFZ-14" target="3BNfdtOmAp1Q7iNLewFZ-8" edge="1">
          <mxGeometry relative="1" as="geometry" />
        </mxCell>
        <mxCell id="3BNfdtOmAp1Q7iNLewFZ-17" style="edgeStyle=orthogonalEdgeStyle;rounded=0;orthogonalLoop=1;jettySize=auto;html=1;exitX=0.5;exitY=1;exitDx=0;exitDy=0;entryX=0;entryY=0;entryDx=0;entryDy=30;entryPerimeter=0;" parent="3BNfdtOmAp1Q7iNLewFZ-1" source="3BNfdtOmAp1Q7iNLewFZ-14" target="3BNfdtOmAp1Q7iNLewFZ-15" edge="1">
          <mxGeometry relative="1" as="geometry" />
        </mxCell>
        <mxCell id="3BNfdtOmAp1Q7iNLewFZ-18" style="edgeStyle=orthogonalEdgeStyle;rounded=0;orthogonalLoop=1;jettySize=auto;html=1;exitX=0.5;exitY=1;exitDx=0;exitDy=0;entryX=0;entryY=0;entryDx=35;entryDy=0;entryPerimeter=0;" parent="3BNfdtOmAp1Q7iNLewFZ-1" source="3BNfdtOmAp1Q7iNLewFZ-2" target="3BNfdtOmAp1Q7iNLewFZ-10" edge="1">
          <mxGeometry relative="1" as="geometry" />
        </mxCell>
        <mxCell id="3BNfdtOmAp1Q7iNLewFZ-19" style="edgeStyle=orthogonalEdgeStyle;rounded=0;orthogonalLoop=1;jettySize=auto;html=1;exitX=0.5;exitY=1;exitDx=0;exitDy=0;entryX=0;entryY=0;entryDx=30;entryDy=0;entryPerimeter=0;" parent="3BNfdtOmAp1Q7iNLewFZ-1" source="3BNfdtOmAp1Q7iNLewFZ-13" target="3BNfdtOmAp1Q7iNLewFZ-7" edge="1">
          <mxGeometry relative="1" as="geometry" />
        </mxCell>
        <mxCell id="3BNfdtOmAp1Q7iNLewFZ-20" value="Onelake" style="rounded=1;whiteSpace=wrap;html=1;" parent="3BNfdtOmAp1Q7iNLewFZ-1" vertex="1">
          <mxGeometry x="90" y="240" width="80" height="30" as="geometry" />
        </mxCell>
        <mxCell id="3BNfdtOmAp1Q7iNLewFZ-21" value="Strata" style="rounded=1;whiteSpace=wrap;html=1;" parent="3BNfdtOmAp1Q7iNLewFZ-1" vertex="1">
          <mxGeometry x="90" y="290" width="80" height="30" as="geometry" />
        </mxCell>
        <mxCell id="3BNfdtOmAp1Q7iNLewFZ-22" style="edgeStyle=orthogonalEdgeStyle;rounded=0;orthogonalLoop=1;jettySize=auto;html=1;exitX=1;exitY=0.5;exitDx=0;exitDy=0;entryX=0;entryY=0;entryDx=0;entryDy=20;entryPerimeter=0;" parent="3BNfdtOmAp1Q7iNLewFZ-1" source="3BNfdtOmAp1Q7iNLewFZ-20" target="3BNfdtOmAp1Q7iNLewFZ-10" edge="1">
          <mxGeometry relative="1" as="geometry" />
        </mxCell>
        <mxCell id="3BNfdtOmAp1Q7iNLewFZ-23" style="edgeStyle=orthogonalEdgeStyle;rounded=0;orthogonalLoop=1;jettySize=auto;html=1;exitX=1;exitY=0.5;exitDx=0;exitDy=0;entryX=0;entryY=0;entryDx=0;entryDy=20;entryPerimeter=0;" parent="3BNfdtOmAp1Q7iNLewFZ-1" source="3BNfdtOmAp1Q7iNLewFZ-21" target="3BNfdtOmAp1Q7iNLewFZ-10" edge="1">
          <mxGeometry relative="1" as="geometry" />
        </mxCell>
        <mxCell id="3BNfdtOmAp1Q7iNLewFZ-24" style="edgeStyle=orthogonalEdgeStyle;rounded=0;orthogonalLoop=1;jettySize=auto;html=1;entryX=1;entryY=0.5;entryDx=0;entryDy=0;" parent="3BNfdtOmAp1Q7iNLewFZ-1" source="3BNfdtOmAp1Q7iNLewFZ-25" target="3BNfdtOmAp1Q7iNLewFZ-12" edge="1">
          <mxGeometry relative="1" as="geometry" />
        </mxCell>
        <mxCell id="3BNfdtOmAp1Q7iNLewFZ-25" value="Sharepoint" style="rounded=1;whiteSpace=wrap;html=1;" parent="3BNfdtOmAp1Q7iNLewFZ-1" vertex="1">
          <mxGeometry x="700" y="190" width="80" height="30" as="geometry" />
        </mxCell>
        <mxCell id="cX2SLG1Sh2c0zySZsyfz-3" style="edgeStyle=orthogonalEdgeStyle;rounded=0;orthogonalLoop=1;jettySize=auto;html=1;entryX=0.5;entryY=0;entryDx=0;entryDy=0;" parent="3BNfdtOmAp1Q7iNLewFZ-1" source="cX2SLG1Sh2c0zySZsyfz-1" target="3BNfdtOmAp1Q7iNLewFZ-12" edge="1">
          <mxGeometry relative="1" as="geometry" />
        </mxCell>
        <mxCell id="cX2SLG1Sh2c0zySZsyfz-1" value="Lakehouse&lt;div&gt;&lt;br&gt;&lt;/div&gt;" style="shape=cylinder3;whiteSpace=wrap;html=1;boundedLbl=1;backgroundOutline=1;size=15;" parent="3BNfdtOmAp1Q7iNLewFZ-1" vertex="1">
          <mxGeometry x="450" y="160" width="60" height="70" as="geometry" />
        </mxCell>
        <mxCell id="cX2SLG1Sh2c0zySZsyfz-2" style="edgeStyle=orthogonalEdgeStyle;rounded=0;orthogonalLoop=1;jettySize=auto;html=1;exitX=0;exitY=0;exitDx=90;exitDy=40;exitPerimeter=0;entryX=0;entryY=0;entryDx=0;entryDy=15;entryPerimeter=0;" parent="3BNfdtOmAp1Q7iNLewFZ-1" source="3BNfdtOmAp1Q7iNLewFZ-10" target="cX2SLG1Sh2c0zySZsyfz-1" edge="1">
          <mxGeometry relative="1" as="geometry" />
        </mxCell>
      </root>
    </mxGraphModel>
  </diagram>
  <diagram id="ViJVqhrSZd1R5wzUh9xb" name="Manual">
    <mxGraphModel dx="1188" dy="619" grid="1" gridSize="10" guides="1" tooltips="1" connect="1" arrows="1" fold="1" page="1" pageScale="1" pageWidth="850" pageHeight="1100" math="0" shadow="0">
      <root>
        <mxCell id="0" />
        <mxCell id="1" parent="0" />
        <mxCell id="QPassKCS8av_1RuoLsZD-1" value="Eide Bailly" style="rounded=0;whiteSpace=wrap;html=1;" parent="1" vertex="1">
          <mxGeometry x="230" y="930" width="120" height="60" as="geometry" />
        </mxCell>
        <mxCell id="QPassKCS8av_1RuoLsZD-2" style="edgeStyle=orthogonalEdgeStyle;rounded=0;orthogonalLoop=1;jettySize=auto;html=1;exitX=0.5;exitY=1;exitDx=0;exitDy=0;entryX=0.5;entryY=0;entryDx=0;entryDy=0;" parent="1" source="QPassKCS8av_1RuoLsZD-3" target="QPassKCS8av_1RuoLsZD-10" edge="1">
          <mxGeometry relative="1" as="geometry" />
        </mxCell>
        <mxCell id="QPassKCS8av_1RuoLsZD-3" value="EBInsights" style="rounded=0;whiteSpace=wrap;html=1;" parent="1" vertex="1">
          <mxGeometry x="600" y="930" width="120" height="60" as="geometry" />
        </mxCell>
        <mxCell id="QPassKCS8av_1RuoLsZD-4" value="" style="endArrow=none;html=1;rounded=0;" parent="1" edge="1">
          <mxGeometry width="50" height="50" relative="1" as="geometry">
            <mxPoint x="480" y="1290" as="sourcePoint" />
            <mxPoint x="480" y="850" as="targetPoint" />
          </mxGeometry>
        </mxCell>
        <mxCell id="QPassKCS8av_1RuoLsZD-5" value="Benchmark Report" style="shape=card;whiteSpace=wrap;html=1;" parent="1" vertex="1">
          <mxGeometry x="265" y="1170" width="50" height="60" as="geometry" />
        </mxCell>
        <mxCell id="QPassKCS8av_1RuoLsZD-6" value="CAH Analytics" style="shape=card;whiteSpace=wrap;html=1;" parent="1" vertex="1">
          <mxGeometry x="580" y="1160" width="50" height="60" as="geometry" />
        </mxCell>
        <mxCell id="QPassKCS8av_1RuoLsZD-7" style="edgeStyle=orthogonalEdgeStyle;rounded=0;orthogonalLoop=1;jettySize=auto;html=1;exitX=0;exitY=0;exitDx=55;exitDy=60;exitPerimeter=0;entryX=0.5;entryY=0;entryDx=0;entryDy=0;" parent="1" source="QPassKCS8av_1RuoLsZD-8" target="QPassKCS8av_1RuoLsZD-11" edge="1">
          <mxGeometry relative="1" as="geometry" />
        </mxCell>
        <mxCell id="QPassKCS8av_1RuoLsZD-8" value="Warehouse" style="shape=cube;whiteSpace=wrap;html=1;boundedLbl=1;backgroundOutline=1;darkOpacity=0.05;darkOpacity2=0.1;" parent="1" vertex="1">
          <mxGeometry x="250" y="1010" width="90" height="60" as="geometry" />
        </mxCell>
        <mxCell id="QPassKCS8av_1RuoLsZD-9" style="edgeStyle=orthogonalEdgeStyle;rounded=0;orthogonalLoop=1;jettySize=auto;html=1;exitX=0.5;exitY=1;exitDx=0;exitDy=0;entryX=0.5;entryY=0;entryDx=0;entryDy=0;" parent="1" source="QPassKCS8av_1RuoLsZD-10" target="QPassKCS8av_1RuoLsZD-12" edge="1">
          <mxGeometry relative="1" as="geometry" />
        </mxCell>
        <mxCell id="QPassKCS8av_1RuoLsZD-10" value="DataFlows" style="shape=process;whiteSpace=wrap;html=1;backgroundOutline=1;" parent="1" vertex="1">
          <mxGeometry x="615" y="1020" width="90" height="40" as="geometry" />
        </mxCell>
        <mxCell id="QPassKCS8av_1RuoLsZD-11" value="Semantic Model" style="shape=hexagon;perimeter=hexagonPerimeter2;whiteSpace=wrap;html=1;fixedSize=1;" parent="1" vertex="1">
          <mxGeometry x="250" y="1090" width="80" height="50" as="geometry" />
        </mxCell>
        <mxCell id="QPassKCS8av_1RuoLsZD-12" value="Semantic Model" style="shape=hexagon;perimeter=hexagonPerimeter2;whiteSpace=wrap;html=1;fixedSize=1;" parent="1" vertex="1">
          <mxGeometry x="620" y="1090" width="80" height="50" as="geometry" />
        </mxCell>
        <mxCell id="QPassKCS8av_1RuoLsZD-13" value="CAH Analytics" style="shape=card;whiteSpace=wrap;html=1;" parent="1" vertex="1">
          <mxGeometry x="690" y="1160" width="50" height="60" as="geometry" />
        </mxCell>
        <mxCell id="QPassKCS8av_1RuoLsZD-14" style="edgeStyle=orthogonalEdgeStyle;rounded=0;orthogonalLoop=1;jettySize=auto;html=1;exitX=0.5;exitY=1;exitDx=0;exitDy=0;entryX=1;entryY=0.5;entryDx=0;entryDy=0;entryPerimeter=0;" parent="1" source="QPassKCS8av_1RuoLsZD-12" target="QPassKCS8av_1RuoLsZD-6" edge="1">
          <mxGeometry relative="1" as="geometry" />
        </mxCell>
        <mxCell id="QPassKCS8av_1RuoLsZD-15" style="edgeStyle=orthogonalEdgeStyle;rounded=0;orthogonalLoop=1;jettySize=auto;html=1;exitX=0.5;exitY=1;exitDx=0;exitDy=0;entryX=0;entryY=0;entryDx=0;entryDy=30;entryPerimeter=0;" parent="1" source="QPassKCS8av_1RuoLsZD-12" target="QPassKCS8av_1RuoLsZD-13" edge="1">
          <mxGeometry relative="1" as="geometry" />
        </mxCell>
        <mxCell id="QPassKCS8av_1RuoLsZD-16" style="edgeStyle=orthogonalEdgeStyle;rounded=0;orthogonalLoop=1;jettySize=auto;html=1;exitX=0.5;exitY=1;exitDx=0;exitDy=0;entryX=0;entryY=0;entryDx=35;entryDy=0;entryPerimeter=0;" parent="1" source="QPassKCS8av_1RuoLsZD-1" target="QPassKCS8av_1RuoLsZD-8" edge="1">
          <mxGeometry relative="1" as="geometry" />
        </mxCell>
        <mxCell id="QPassKCS8av_1RuoLsZD-17" style="edgeStyle=orthogonalEdgeStyle;rounded=0;orthogonalLoop=1;jettySize=auto;html=1;exitX=0.5;exitY=1;exitDx=0;exitDy=0;entryX=0;entryY=0;entryDx=30;entryDy=0;entryPerimeter=0;" parent="1" source="QPassKCS8av_1RuoLsZD-11" target="QPassKCS8av_1RuoLsZD-5" edge="1">
          <mxGeometry relative="1" as="geometry" />
        </mxCell>
        <mxCell id="QPassKCS8av_1RuoLsZD-18" value="" style="curved=1;endArrow=classic;html=1;rounded=0;" parent="1" edge="1">
          <mxGeometry width="50" height="50" relative="1" as="geometry">
            <mxPoint x="360" y="900" as="sourcePoint" />
            <mxPoint x="600" y="890" as="targetPoint" />
            <Array as="points">
              <mxPoint x="410" y="790" />
              <mxPoint x="540" y="800" />
            </Array>
          </mxGeometry>
        </mxCell>
        <mxCell id="QPassKCS8av_1RuoLsZD-19" value="Manual Export" style="edgeLabel;html=1;align=center;verticalAlign=middle;resizable=0;points=[];" parent="QPassKCS8av_1RuoLsZD-18" vertex="1" connectable="0">
          <mxGeometry x="-0.0116" y="5" relative="1" as="geometry">
            <mxPoint as="offset" />
          </mxGeometry>
        </mxCell>
      </root>
    </mxGraphModel>
  </diagram>
  <diagram id="kvyeV_nOV0dPbkKEkCkG" name="Finalized Process">
    <mxGraphModel dx="1188" dy="619" grid="1" gridSize="10" guides="1" tooltips="1" connect="1" arrows="1" fold="1" page="1" pageScale="1" pageWidth="850" pageHeight="1100" math="0" shadow="0">
      <root>
        <mxCell id="0" />
        <mxCell id="1" parent="0" />
        <mxCell id="drjLMpLRtqIkLWMXM6X0-4" value="" style="endArrow=none;html=1;rounded=0;" edge="1" parent="1">
          <mxGeometry width="50" height="50" relative="1" as="geometry">
            <mxPoint x="410" y="210" as="sourcePoint" />
            <mxPoint x="410" y="40" as="targetPoint" />
          </mxGeometry>
        </mxCell>
        <mxCell id="drjLMpLRtqIkLWMXM6X0-10" style="edgeStyle=orthogonalEdgeStyle;rounded=0;orthogonalLoop=1;jettySize=auto;html=1;exitX=0.5;exitY=1;exitDx=0;exitDy=0;entryX=0.5;entryY=0;entryDx=0;entryDy=0;" edge="1" parent="1" source="drjLMpLRtqIkLWMXM6X0-11" target="drjLMpLRtqIkLWMXM6X0-13">
          <mxGeometry relative="1" as="geometry" />
        </mxCell>
        <mxCell id="drjLMpLRtqIkLWMXM6X0-11" value="DataFlows" style="shape=process;whiteSpace=wrap;html=1;backgroundOutline=1;" vertex="1" parent="1">
          <mxGeometry x="525" y="235" width="90" height="40" as="geometry" />
        </mxCell>
        <mxCell id="drjLMpLRtqIkLWMXM6X0-12" value="Semantic Model" style="shape=hexagon;perimeter=hexagonPerimeter2;whiteSpace=wrap;html=1;fixedSize=1;" vertex="1" parent="1">
          <mxGeometry x="165" y="320" width="80" height="50" as="geometry" />
        </mxCell>
        <mxCell id="drjLMpLRtqIkLWMXM6X0-13" value="Semantic Model" style="shape=hexagon;perimeter=hexagonPerimeter2;whiteSpace=wrap;html=1;fixedSize=1;" vertex="1" parent="1">
          <mxGeometry x="530" y="320" width="80" height="50" as="geometry" />
        </mxCell>
        <mxCell id="drjLMpLRtqIkLWMXM6X0-15" style="edgeStyle=orthogonalEdgeStyle;rounded=0;orthogonalLoop=1;jettySize=auto;html=1;exitX=0.5;exitY=1;exitDx=0;exitDy=0;entryX=0.5;entryY=0;entryDx=0;entryDy=0;entryPerimeter=0;" edge="1" parent="1" source="drjLMpLRtqIkLWMXM6X0-13" target="drjLMpLRtqIkLWMXM6X0-49">
          <mxGeometry relative="1" as="geometry">
            <mxPoint x="530" y="389.9999999999999" as="targetPoint" />
          </mxGeometry>
        </mxCell>
        <mxCell id="drjLMpLRtqIkLWMXM6X0-19" value="Client Upload&lt;div&gt;(OneLake)&lt;/div&gt;" style="rounded=1;whiteSpace=wrap;html=1;" vertex="1" parent="1">
          <mxGeometry x="50" y="110" width="80" height="30" as="geometry" />
        </mxCell>
        <mxCell id="drjLMpLRtqIkLWMXM6X0-43" style="edgeStyle=orthogonalEdgeStyle;rounded=0;orthogonalLoop=1;jettySize=auto;html=1;exitX=0.5;exitY=1;exitDx=0;exitDy=0;entryX=1;entryY=0.5;entryDx=0;entryDy=0;" edge="1" parent="1" source="drjLMpLRtqIkLWMXM6X0-24" target="drjLMpLRtqIkLWMXM6X0-11">
          <mxGeometry relative="1" as="geometry" />
        </mxCell>
        <mxCell id="drjLMpLRtqIkLWMXM6X0-24" value="Sharepoint" style="rounded=1;whiteSpace=wrap;html=1;" vertex="1" parent="1">
          <mxGeometry x="640" y="180" width="80" height="30" as="geometry" />
        </mxCell>
        <mxCell id="drjLMpLRtqIkLWMXM6X0-28" value="&lt;h1 style=&quot;margin-top: 0px;&quot;&gt;Eide Bailly Tenant&lt;/h1&gt;" style="text;html=1;whiteSpace=wrap;overflow=hidden;rounded=0;" vertex="1" parent="1">
          <mxGeometry x="50" y="40" width="270" height="70" as="geometry" />
        </mxCell>
        <mxCell id="drjLMpLRtqIkLWMXM6X0-29" value="&lt;h1 style=&quot;margin-top: 0px;&quot;&gt;EBInsights Tenant&lt;/h1&gt;" style="text;html=1;whiteSpace=wrap;overflow=hidden;rounded=0;" vertex="1" parent="1">
          <mxGeometry x="480" y="40" width="270" height="70" as="geometry" />
        </mxCell>
        <mxCell id="drjLMpLRtqIkLWMXM6X0-35" style="edgeStyle=orthogonalEdgeStyle;rounded=0;orthogonalLoop=1;jettySize=auto;html=1;exitX=0.5;exitY=1;exitDx=0;exitDy=0;exitPerimeter=0;entryX=0.5;entryY=0;entryDx=0;entryDy=0;" edge="1" parent="1" source="drjLMpLRtqIkLWMXM6X0-30" target="drjLMpLRtqIkLWMXM6X0-36">
          <mxGeometry relative="1" as="geometry">
            <mxPoint x="205" y="239.9999999999999" as="targetPoint" />
          </mxGeometry>
        </mxCell>
        <mxCell id="drjLMpLRtqIkLWMXM6X0-30" value="Lakehouse" style="shape=cylinder3;whiteSpace=wrap;html=1;boundedLbl=1;backgroundOutline=1;size=15;" vertex="1" parent="1">
          <mxGeometry x="170" y="110" width="70" height="80" as="geometry" />
        </mxCell>
        <mxCell id="drjLMpLRtqIkLWMXM6X0-32" style="edgeStyle=orthogonalEdgeStyle;rounded=0;orthogonalLoop=1;jettySize=auto;html=1;exitX=1;exitY=0.5;exitDx=0;exitDy=0;entryX=0;entryY=0.5;entryDx=0;entryDy=0;entryPerimeter=0;" edge="1" parent="1" source="drjLMpLRtqIkLWMXM6X0-19" target="drjLMpLRtqIkLWMXM6X0-30">
          <mxGeometry relative="1" as="geometry" />
        </mxCell>
        <mxCell id="drjLMpLRtqIkLWMXM6X0-33" value="Strata (SFTP)" style="rounded=1;whiteSpace=wrap;html=1;" vertex="1" parent="1">
          <mxGeometry x="50" y="150" width="80" height="30" as="geometry" />
        </mxCell>
        <mxCell id="drjLMpLRtqIkLWMXM6X0-34" style="edgeStyle=orthogonalEdgeStyle;rounded=0;orthogonalLoop=1;jettySize=auto;html=1;entryX=0;entryY=0.5;entryDx=0;entryDy=0;entryPerimeter=0;" edge="1" parent="1" source="drjLMpLRtqIkLWMXM6X0-33" target="drjLMpLRtqIkLWMXM6X0-30">
          <mxGeometry relative="1" as="geometry" />
        </mxCell>
        <mxCell id="drjLMpLRtqIkLWMXM6X0-37" style="edgeStyle=orthogonalEdgeStyle;rounded=0;orthogonalLoop=1;jettySize=auto;html=1;exitX=0.5;exitY=1;exitDx=0;exitDy=0;entryX=0.5;entryY=0;entryDx=0;entryDy=0;" edge="1" parent="1" source="drjLMpLRtqIkLWMXM6X0-36" target="drjLMpLRtqIkLWMXM6X0-12">
          <mxGeometry relative="1" as="geometry" />
        </mxCell>
        <mxCell id="drjLMpLRtqIkLWMXM6X0-51" style="edgeStyle=orthogonalEdgeStyle;rounded=0;orthogonalLoop=1;jettySize=auto;html=1;exitX=1;exitY=0.5;exitDx=0;exitDy=0;entryX=0;entryY=0.5;entryDx=0;entryDy=0;" edge="1" parent="1" source="drjLMpLRtqIkLWMXM6X0-36">
          <mxGeometry relative="1" as="geometry">
            <mxPoint x="300" y="254.9999999999999" as="targetPoint" />
          </mxGeometry>
        </mxCell>
        <mxCell id="drjLMpLRtqIkLWMXM6X0-36" value="Warehouse" style="shape=datastore;whiteSpace=wrap;html=1;" vertex="1" parent="1">
          <mxGeometry x="167.5" y="220" width="75" height="70" as="geometry" />
        </mxCell>
        <mxCell id="drjLMpLRtqIkLWMXM6X0-39" value="&lt;div&gt;&lt;span style=&quot;background-color: transparent; color: light-dark(rgb(0, 0, 0), rgb(255, 255, 255));&quot;&gt;Benchmark Report&lt;/span&gt;&lt;/div&gt;" style="shape=note;whiteSpace=wrap;html=1;backgroundOutline=1;darkOpacity=0.05;size=16;" vertex="1" parent="1">
          <mxGeometry x="170" y="410" width="70" height="60" as="geometry" />
        </mxCell>
        <mxCell id="drjLMpLRtqIkLWMXM6X0-40" style="edgeStyle=orthogonalEdgeStyle;rounded=0;orthogonalLoop=1;jettySize=auto;html=1;exitX=0.5;exitY=1;exitDx=0;exitDy=0;entryX=0.5;entryY=0;entryDx=0;entryDy=0;entryPerimeter=0;" edge="1" parent="1" source="drjLMpLRtqIkLWMXM6X0-12" target="drjLMpLRtqIkLWMXM6X0-39">
          <mxGeometry relative="1" as="geometry" />
        </mxCell>
        <mxCell id="drjLMpLRtqIkLWMXM6X0-42" value="" style="endArrow=none;html=1;rounded=0;" edge="1" parent="1">
          <mxGeometry width="50" height="50" relative="1" as="geometry">
            <mxPoint x="410" y="470" as="sourcePoint" />
            <mxPoint x="410" y="300" as="targetPoint" />
          </mxGeometry>
        </mxCell>
        <mxCell id="drjLMpLRtqIkLWMXM6X0-47" style="edgeStyle=orthogonalEdgeStyle;rounded=0;orthogonalLoop=1;jettySize=auto;html=1;exitX=0.5;exitY=1;exitDx=0;exitDy=0;exitPerimeter=0;entryX=0;entryY=0.5;entryDx=0;entryDy=0;" edge="1" parent="1" source="drjLMpLRtqIkLWMXM6X0-46" target="drjLMpLRtqIkLWMXM6X0-11">
          <mxGeometry relative="1" as="geometry" />
        </mxCell>
        <mxCell id="drjLMpLRtqIkLWMXM6X0-46" value="Lakehouse" style="shape=cylinder3;whiteSpace=wrap;html=1;boundedLbl=1;backgroundOutline=1;size=15;" vertex="1" parent="1">
          <mxGeometry x="450" y="130" width="70" height="80" as="geometry" />
        </mxCell>
        <mxCell id="drjLMpLRtqIkLWMXM6X0-49" value="Hospital Insights" style="shape=note;whiteSpace=wrap;html=1;backgroundOutline=1;darkOpacity=0.05;size=16;" vertex="1" parent="1">
          <mxGeometry x="535" y="410" width="70" height="60" as="geometry" />
        </mxCell>
        <mxCell id="drjLMpLRtqIkLWMXM6X0-50" value="Pipeline" style="shape=process;whiteSpace=wrap;html=1;backgroundOutline=1;" vertex="1" parent="1">
          <mxGeometry x="300" y="235" width="90" height="45" as="geometry" />
        </mxCell>
        <mxCell id="drjLMpLRtqIkLWMXM6X0-53" style="edgeStyle=orthogonalEdgeStyle;rounded=0;orthogonalLoop=1;jettySize=auto;html=1;exitX=1;exitY=0.5;exitDx=0;exitDy=0;entryX=0.145;entryY=1;entryDx=0;entryDy=-4.35;entryPerimeter=0;" edge="1" parent="1" source="drjLMpLRtqIkLWMXM6X0-50" target="drjLMpLRtqIkLWMXM6X0-46">
          <mxGeometry relative="1" as="geometry" />
        </mxCell>
      </root>
    </mxGraphModel>
  </diagram>
</mxfile>
